<svg width="1688" height="865" viewBox="0 0 1688 865" fill="none" xmlns="http://www.w3.org/2000/svg">
<g opacity="0.6">
<path d="M1.02251 195.6C1.02251 167.6 6.62252 142.667 17.8225 120.8C29.2892 98.9335 45.5558 82.0001 66.6225 70.0001C87.6891 57.7334 112.489 51.6 141.023 51.6C165.556 51.6 187.423 56.2667 206.622 65.6C226.089 74.6667 241.822 87.6001 253.822 104.4C266.089 121.2 274.222 140.8 278.222 163.2H184.622C180.356 153.867 174.222 146.667 166.223 141.6C158.489 136.267 149.556 133.6 139.423 133.6C124.489 133.6 112.623 139.2 103.823 150.4C95.2892 161.6 91.0225 176.667 91.0225 195.6C91.0225 214.534 84.8891 754.2 93.4224 765.4C102.222 776.6 114.089 782.2 129.022 782.2C139.156 782.2 148.089 779.667 155.822 774.6C163.822 769.267 169.956 761.934 174.222 752.6H267.822C263.822 775 255.689 794.6 243.422 811.4C231.422 828.2 215.689 841.267 196.222 850.6C177.022 859.667 155.156 864.2 130.622 864.2C102.089 864.2 77.2891 858.2 56.2224 846.2C35.1558 833.934 18.8891 816.867 7.42245 795C-3.77754 773.134 1.02251 223.6 1.02251 195.6Z" fill="#FF2EEA"/>
<path d="M414.594 865C391.928 865 371.528 860.334 353.394 851C335.261 841.667 320.994 828.334 310.594 811C300.461 793.4 295.394 772.867 295.394 749.4C295.394 725.934 298.261 123.333 308.394 106C318.794 88.4001 333.061 74.9334 351.194 65.6C369.327 56.2667 389.727 51.6 412.394 51.6C435.061 51.6 455.461 56.2667 473.594 65.6C491.727 74.9334 505.861 88.4001 515.994 106C526.394 123.333 533.794 725.934 533.794 749.4C533.794 772.867 528.594 793.4 518.194 811C508.061 828.334 493.928 841.667 475.794 851C457.661 860.334 437.261 865 414.594 865ZM414.594 788.2C422.861 788.2 429.794 785 435.394 778.6C440.994 771.934 443.794 762.2 443.794 749.4C443.794 736.6 438.794 144.8 433.194 138.4C427.594 131.734 420.661 128.4 412.394 128.4C404.127 128.4 397.194 131.734 391.594 138.4C385.994 144.8 385.394 736.6 385.394 749.4C385.394 762.2 388.061 771.934 393.394 778.6C398.994 785 406.061 788.2 414.594 788.2Z" fill="#FF2EEA"/>
<path d="M717.491 52.8C743.358 52.8 763.491 61.4667 777.891 78.8001C792.558 96.1334 799.891 119.6 799.891 149.2L802.091 862.2H713.691V742.6C713.691 731.934 708.558 141.333 702.691 135.2C697.091 128.8 689.491 125.6 679.891 125.6C670.024 125.6 662.291 128.8 656.691 135.2C651.091 141.333 650.491 731.934 650.491 742.6V862.2H561.691L559.491 54.4001H648.291V88.8001C655.224 78.1335 664.424 69.4667 675.891 62.8C687.624 56.1334 701.491 52.8 717.491 52.8Z" fill="#FF2EEA"/>
<path d="M948.397 786.2V865L859.597 862.2C859.597 862.2 859.597 831.4 859.597 769.8L860.5 140.6H832.5V66.6002H860.5V12.2002H949.3V66.6002H986.1V140.6H949.3L948.397 771.4C948.397 776.734 948.397 776.7 948.397 782.2V786.2Z" fill="#FF2EEA"/>
<path d="M1002.82 749.4C1002.82 725.667 1004.62 122.933 1012.62 105.6C1020.88 88.0002 1032.08 74.6667 1046.22 65.6C1060.35 56.2667 1076.22 51.6 1093.82 51.6C1108.48 51.6 1121.15 54.6667 1131.82 60.8C1142.48 66.6667 1150.62 74.8001 1156.22 85.2001V54.4001H1244.62L1246.82 862.2H1158.42V831.4C1152.82 841.8 1144.68 850.067 1134.02 856.2C1123.35 862.067 1110.68 865 1096.02 865C1078.42 865 1062.55 860.467 1048.42 851.4C1034.28 842.067 1023.08 828.734 1014.82 811.4C1006.82 793.8 1002.82 773.134 1002.82 749.4ZM1158.42 749.4C1158.42 737.4 1153.15 145.867 1147.02 139.2C1140.88 132.534 1133.02 129.2 1123.42 129.2C1113.82 129.2 1105.95 132.534 1099.82 139.2C1093.68 145.867 1092.82 737.4 1092.82 749.4C1092.82 761.4 1095.88 770.734 1102.02 777.4C1108.15 784.067 1116.02 787.4 1125.62 787.4C1135.22 787.4 1143.08 784.067 1149.22 777.4C1155.35 770.734 1158.42 761.4 1158.42 749.4Z" fill="#FF2EEA"/>
<path d="M1389.49 794.7V862.2H1300.72C1300.72 862.2 1300.69 831.4 1300.69 769.8L1298.49 128.4H1270.49V54.4001H1298.49V0H1387.29V54.4001H1424.09V128.4H1387.29L1389.49 771.4C1389.49 776.734 1389.49 777.2 1389.49 783.2C1389.49 786.6 1389.49 777.2 1389.49 787.7V794.7Z" fill="#FF2EEA"/>
<path d="M1568.11 865C1545.44 865 1525.04 860.334 1506.91 851C1488.78 841.667 1474.51 828.334 1464.11 811C1453.98 793.4 1448.91 772.867 1448.91 749.4C1448.91 725.934 1451.78 123.333 1461.91 106C1472.31 88.4001 1486.58 74.9334 1504.71 65.6C1522.84 56.2667 1543.24 51.6 1565.91 51.6C1588.58 51.6 1608.98 56.2667 1627.11 65.6C1645.24 74.9334 1659.38 88.4001 1669.51 106C1679.91 123.333 1687.31 725.934 1687.31 749.4C1687.31 772.867 1682.11 793.4 1671.71 811C1661.58 828.334 1647.44 841.667 1629.31 851C1611.18 860.334 1590.78 865 1568.11 865ZM1568.11 788.2C1576.38 788.2 1583.31 785 1588.91 778.6C1594.51 771.934 1597.31 762.2 1597.31 749.4C1597.31 736.6 1592.31 144.8 1586.71 138.4C1581.11 131.734 1574.18 128.4 1565.91 128.4C1557.64 128.4 1550.71 131.734 1545.11 138.4C1539.51 144.8 1538.91 736.6 1538.91 749.4C1538.91 762.2 1541.58 771.934 1546.91 778.6C1552.51 785 1559.58 788.2 1568.11 788.2Z" fill="#FF2EEA"/>
</g>
</svg>
