<svg width="405" height="317" viewBox="0 0 405 317" fill="none" xmlns="http://www.w3.org/2000/svg">
<g opacity="0.6" filter="url(#filter0_f_487_13)">
<path d="M126.006 87.702C126.006 92.794 124.828 97.43 122.472 101.61C120.116 105.714 116.62 108.982 111.984 111.414C107.424 113.846 101.876 115.062 95.34 115.062H85.308V140.712H60V60H95.34C105.22 60 112.782 62.508 118.026 67.524C123.346 72.54 126.006 79.266 126.006 87.702ZM92.49 95.112C97.734 95.112 100.356 92.642 100.356 87.702C100.356 82.762 97.734 80.292 92.49 80.292H85.308V95.112H92.49Z" fill="#CBCBCB"/>
<path d="M164.585 256.712C158.125 256.712 152.311 255.382 147.143 252.722C141.975 250.062 137.909 246.262 134.945 241.322C132.057 236.306 130.613 230.454 130.613 223.766C130.613 217.078 132.057 91.2679 134.945 86.3279C137.909 81.3119 141.975 77.4739 147.143 74.8139C152.311 72.1539 158.125 70.8239 164.585 70.8239C171.045 70.8239 176.859 72.1539 182.027 74.8139C187.195 77.4739 191.223 81.3119 194.111 86.3279C197.075 91.2679 198.557 217.078 198.557 223.766C198.557 230.454 197.075 236.306 194.111 241.322C191.223 246.262 187.195 250.062 182.027 252.722C176.859 255.382 171.045 256.712 164.585 256.712ZM164.585 234.824C166.941 234.824 168.917 233.912 170.513 232.088C172.109 230.188 172.907 227.414 172.907 223.766C172.907 220.118 172.109 97.3859 170.513 95.5619C168.917 93.6619 166.941 92.7119 164.585 92.7119C162.229 92.7119 160.253 93.6619 158.657 95.5619C157.061 97.3859 156.263 220.118 156.263 223.766C156.263 227.414 157.023 230.188 158.543 232.088C160.139 233.912 162.153 234.824 164.585 234.824Z" fill="#CBCBCB"/>
<path d="M231.816 88.272C234.4 84.548 237.554 81.584 241.278 79.38C245.002 77.1 248.878 75.96 252.906 75.96V102.978H245.724C240.936 102.978 237.402 103.814 235.122 105.486C232.918 107.158 231.816 110.122 231.816 114.378V140.712H206.508V76.416H231.816V88.272Z" fill="#CBCBCB"/>
<path d="M299.737 119.166V140.712H290.161C272.529 140.712 263.713 131.934 263.713 114.378V97.506H255.733V76.416H263.713V60.912H289.021V76.416H299.509V97.506H289.021V114.834C289.021 116.354 289.363 117.456 290.047 118.14C290.807 118.824 292.023 119.166 293.695 119.166H299.737Z" fill="#CBCBCB"/>
</g>
<g opacity="0.6" filter="url(#filter1_f_487_13)">
<path d="M120.75 176.144C119.382 175.992 118.432 175.916 117.9 175.916C116 175.916 114.556 176.296 113.568 177.056C112.58 177.74 111.896 178.956 111.516 180.704H120.75V201.794H111.288V245H85.98V201.794H79.14V180.704H85.98C86.132 172.344 88.754 165.884 93.846 161.324C99.014 156.688 106.234 154.37 115.506 154.37C116.57 154.37 118.318 154.446 120.75 154.598V176.144Z" fill="#CBCBCB"/>
</g>
<g opacity="0.6" filter="url(#filter2_f_487_13)">
<path d="M232.308 156.352V240.712H207V156.352H232.308ZM256.506 171.286C252.098 171.286 248.564 170.108 245.904 167.752C243.244 165.396 241.914 162.432 241.914 158.86C241.914 155.212 243.244 152.21 245.904 149.854C248.564 147.422 252.098 146.206 256.506 146.206C260.838 146.206 264.334 147.422 266.994 149.854C269.654 152.21 270.984 155.212 270.984 158.86C270.984 162.432 269.654 165.396 266.994 167.752C264.334 170.108 260.838 171.286 256.506 171.286ZM269.046 176.416V240.712H243.738V176.416H269.046ZM311.028 241.51C304.568 241.51 298.754 240.18 293.586 237.52C288.418 234.86 284.352 231.06 281.388 226.12C278.5 221.104 277.056 215.252 277.056 208.564C277.056 201.876 278.5 196.062 281.388 191.122C284.352 186.106 288.418 182.268 293.586 179.608C298.754 176.948 304.568 175.618 311.028 175.618C317.488 175.618 323.302 176.948 328.47 179.608C333.638 182.268 337.666 186.106 340.554 191.122C343.518 196.062 345 201.876 345 208.564C345 215.252 343.518 221.104 340.554 226.12C337.666 231.06 333.638 234.86 328.47 237.52C323.302 240.18 317.488 241.51 311.028 241.51ZM311.028 219.622C313.384 219.622 315.36 218.71 316.956 216.886C318.552 214.986 319.35 212.212 319.35 208.564C319.35 204.916 318.552 202.18 316.956 200.356C315.36 198.456 313.384 197.506 311.028 197.506C308.672 197.506 306.696 198.456 305.1 200.356C303.504 202.18 302.706 204.916 302.706 208.564C302.706 212.212 303.466 214.986 304.986 216.886C306.582 218.71 308.596 219.622 311.028 219.622Z" fill="#CBCBCB"/>
</g>
<path d="M126.006 87.702C126.006 92.794 124.828 97.43 122.472 101.61C120.116 105.714 116.62 108.982 111.984 111.414C107.424 113.846 101.876 115.062 95.34 115.062H85.308V140.712H60V60H95.34C105.22 60 112.782 62.508 118.026 67.524C123.346 72.54 126.006 79.266 126.006 87.702ZM92.49 95.112C97.734 95.112 100.356 92.642 100.356 87.702C100.356 82.762 97.734 80.292 92.49 80.292H85.308V95.112H92.49Z" fill="#CBCBCB"/>
<path d="M164.585 256.712C158.125 256.712 152.311 255.382 147.143 252.722C141.975 250.062 137.909 246.262 134.945 241.322C132.057 236.306 130.613 230.454 130.613 223.766C130.613 217.078 132.057 83.444 134.945 78.504C137.909 73.488 141.975 69.65 147.143 66.99C152.311 64.33 158.125 63 164.585 63C171.045 63 176.859 64.33 182.027 66.99C187.195 69.65 191.223 73.488 194.111 78.504C197.075 83.444 198.557 217.078 198.557 223.766C198.557 230.454 197.075 236.306 194.111 241.322C191.223 246.262 187.195 250.062 182.027 252.722C176.859 255.382 171.045 256.712 164.585 256.712ZM164.585 234.824C166.941 234.824 168.917 233.912 170.513 232.088C172.109 230.188 172.907 227.414 172.907 223.766C172.907 220.118 172.109 89.562 170.513 87.738C168.917 85.838 166.941 84.888 164.585 84.888C162.229 84.888 160.253 85.838 158.657 87.738C157.061 89.562 156.263 220.118 156.263 223.766C156.263 227.414 157.023 230.188 158.543 232.088C160.139 233.912 162.153 234.824 164.585 234.824Z" fill="#CBCBCB"/>
<path d="M231.816 88.272C234.4 84.548 237.554 81.584 241.278 79.38C245.002 77.1 248.878 75.96 252.906 75.96V102.978H245.724C240.936 102.978 237.402 103.814 235.122 105.486C232.918 107.158 231.816 110.122 231.816 114.378V140.712H206.508V76.416H231.816V88.272Z" fill="#CBCBCB"/>
<path d="M299.737 119.166V140.712H290.161C272.529 140.712 263.713 131.934 263.713 114.378V97.506H255.733V76.416H263.713V60.912H289.021V76.416H299.509V97.506H289.021V114.834C289.021 116.354 289.363 117.456 290.047 118.14C290.807 118.824 292.023 119.166 293.695 119.166H299.737Z" fill="#CBCBCB"/>
<path d="M120.75 176.144C119.382 175.992 118.432 175.916 117.9 175.916C116 175.916 114.556 176.296 113.568 177.056C112.58 177.74 111.896 178.956 111.516 180.704H120.75V201.794H111.288V245H85.98V201.794H79.14V180.704H85.98C86.132 172.344 88.754 165.884 93.846 161.324C99.014 156.688 106.234 154.37 115.506 154.37C116.57 154.37 118.318 154.446 120.75 154.598V176.144Z" fill="#CBCBCB"/>
<path d="M232.308 156.352V240.712H207V156.352H232.308ZM256.506 171.286C252.098 171.286 248.564 170.108 245.904 167.752C243.244 165.396 241.914 162.432 241.914 158.86C241.914 155.212 243.244 152.21 245.904 149.854C248.564 147.422 252.098 146.206 256.506 146.206C260.838 146.206 264.334 147.422 266.994 149.854C269.654 152.21 270.984 155.212 270.984 158.86C270.984 162.432 269.654 165.396 266.994 167.752C264.334 170.108 260.838 171.286 256.506 171.286ZM269.046 176.416V240.712H243.738V176.416H269.046ZM311.028 241.51C304.568 241.51 298.754 240.18 293.586 237.52C288.418 234.86 284.352 231.06 281.388 226.12C278.5 221.104 277.056 215.252 277.056 208.564C277.056 201.876 278.5 196.062 281.388 191.122C284.352 186.106 288.418 182.268 293.586 179.608C298.754 176.948 304.568 175.618 311.028 175.618C317.488 175.618 323.302 176.948 328.47 179.608C333.638 182.268 337.666 186.106 340.554 191.122C343.518 196.062 345 201.876 345 208.564C345 215.252 343.518 221.104 340.554 226.12C337.666 231.06 333.638 234.86 328.47 237.52C323.302 240.18 317.488 241.51 311.028 241.51ZM311.028 219.622C313.384 219.622 315.36 218.71 316.956 216.886C318.552 214.986 319.35 212.212 319.35 208.564C319.35 204.916 318.552 202.18 316.956 200.356C315.36 198.456 313.384 197.506 311.028 197.506C308.672 197.506 306.696 198.456 305.1 200.356C303.504 202.18 302.706 204.916 302.706 208.564C302.706 212.212 303.466 214.986 304.986 216.886C306.582 218.71 308.596 219.622 311.028 219.622Z" fill="#CBCBCB"/>
<defs>
<filter id="filter0_f_487_13" x="0" y="0" width="359.736" height="316.712" filterUnits="userSpaceOnUse" color-interpolation-filters="sRGB">
<feFlood flood-opacity="0" result="BackgroundImageFix"/>
<feBlend mode="normal" in="SourceGraphic" in2="BackgroundImageFix" result="shape"/>
<feGaussianBlur stdDeviation="30" result="effect1_foregroundBlur_487_13"/>
</filter>
<filter id="filter1_f_487_13" x="19.1396" y="94.3701" width="161.61" height="210.63" filterUnits="userSpaceOnUse" color-interpolation-filters="sRGB">
<feFlood flood-opacity="0" result="BackgroundImageFix"/>
<feBlend mode="normal" in="SourceGraphic" in2="BackgroundImageFix" result="shape"/>
<feGaussianBlur stdDeviation="30" result="effect1_foregroundBlur_487_13"/>
</filter>
<filter id="filter2_f_487_13" x="147" y="86.2058" width="258" height="215.304" filterUnits="userSpaceOnUse" color-interpolation-filters="sRGB">
<feFlood flood-opacity="0" result="BackgroundImageFix"/>
<feBlend mode="normal" in="SourceGraphic" in2="BackgroundImageFix" result="shape"/>
<feGaussianBlur stdDeviation="30" result="effect1_foregroundBlur_487_13"/>
</filter>
</defs>
</svg>
